<svg xmlns="http://www.w3.org/2000/svg" viewBox="0 0 320 320" width="320" height="320">
  <rect width="320" height="320" rx="72" fill="#141213"/>
  <g stroke="#E7A9C0" stroke-width="4" stroke-linecap="round">
    <line x1="221.06" y1="222.77" x2="232.63" y2="236.56"/>
    <line x1="151.72" y1="244.64" x2="150.15" y2="262.57"/>
    <line x1="87.23" y1="211.06" x2="73.44" y2="222.63"/>
    <line x1="65.00" y1="150.00" x2="47.00" y2="150.00"/>
    <line x1="87.23" y1="88.94" x2="73.44" y2="77.37"/>
    <line x1="151.72" y1="55.36" x2="150.15" y2="37.43"/>
    <line x1="221.06" y1="77.23" x2="232.63" y2="63.44"/>
  </g>
  <g fill="#E7A9C0">
    <circle cx="232.63" cy="236.56" r="5"/>
    <circle cx="150.15" cy="262.57" r="5"/>
    <circle cx="73.44" cy="222.63" r="5"/>
    <circle cx="47.00" cy="150.00" r="5"/>
    <circle cx="73.44" cy="77.37" r="5"/>
    <circle cx="150.15" cy="37.43" r="5"/>
    <circle cx="232.63" cy="63.44" r="5"/>
  </g>
  <path d="M 241.20 218.14 A 106 106 0 1 1 241.20 81.86 L 208.26 109.50 A 63 63 0 1 0 208.26 190.50 Z" fill="#EDEAE6"/>
  <circle cx="171" cy="171" r="21" fill="#9C6E80"/>
  <circle cx="171" cy="171" r="8" fill="#F2B8CE"/>
</svg>
